# xmcd
#
# Track frame offsets: 
#        150
#        19254
#        35219
#        49377
#        60774
#        81806
#        96698
#        119460
#        132675
#        144204
#
# Disc length: 2165 seconds
#
# Revision: 3
# Processed by: cddbd v1.5.2PL0 Copyright (c) Steve Scherf et al.
# Submitted via: ExactAudioCopy v1.0b4
#
DISCID=9208730a
DTITLE=Elvin Bishop - Struttin' My Stuff
DYEAR=1975
DGENRE=Blues Rock, Modern Electric Blues
TTITLE0=Struttin' My Stuff
TTITLE1=Hey, Hey, Hey, Hey
TTITLE2=My Girl
TTITLE3=I Love the Life I Lead
TTITLE4=Fooled Around and Fell in Love
TTITLE5=Holler and Shout
TTITLE6=Slick Titty Boom
TTITLE7=Grab All the Love
TTITLE8=Have a Good Time
TTITLE9=Joy
EXTD=
EXTT0=
EXTT1=
EXTT2=
EXTT3=
EXTT4=
EXTT5=
EXTT6=
EXTT7=
EXTT8=
EXTT9=
PLAYORDER=
